<?xml version="1.0" encoding="iso-8859-1"?>
<!-- Uploaded to: SVG Repo, www.svgrepo.com, Generator: SVG Repo Mixer Tools -->
<svg height="800px" width="800px" version="1.1" id="Layer_1" xmlns="http://www.w3.org/2000/svg" xmlns:xlink="http://www.w3.org/1999/xlink" 
	 viewBox="0 0 473.931 473.931" xml:space="preserve">
<circle style="fill:#9ACA42;" cx="236.966" cy="236.966" r="236.966"/>
<polygon style="fill:#84654F;" points="43.565,373.787 43.528,373.779 43.558,373.824 "/>
<path style="fill:#8E6E56;" d="M278.088,284.086l-77.095-3.955l-22.694,54.753c-39.629,30.263-134.733,38.899-134.733,38.899
	l-0.007,0.037c42.929,60.549,113.518,100.111,193.393,100.111c10.967,0,21.743-0.808,32.314-2.253
	C341.641,391.923,278.088,284.086,278.088,284.086z"/>
<path style="fill:#A38876;" d="M278.088,284.086c0,0,57.522,101.742-18.129,181.711c0,0-107.781-25.904-81.66-130.909l22.694-54.753
	L278.088,284.086z"/>
<path style="fill:#99806D;" d="M268.928,283.098c0,0,42.944,84.994-13.646,144.814c0,0-80.538-28.265-61.002-106.823l16.98-40.954
	L268.928,283.098z"/>
<path style="fill:#8B7363;" d="M262.765,282.451c0,0,28.232,66.637-14.032,111.317c0,0-59.299-24.374-44.71-83.041l12.681-30.593
	L262.765,282.451z"/>
<path style="fill:#917853;" d="M282.297,247.495c0,0,12.146-15.382,24.284-17.003l28.329-10.518c0,0-1.62,16.183-8.898,27.517
	c-7.293,11.33-17.006,28.333-30.765,25.897L274.2,290.391l-7.285-40.471L282.297,247.495z"/>
<g>
	<polygon style="fill:#4B3937;" points="253.792,233.722 340.41,171.395 369.551,124.443 360.642,102.584 361.454,72.631 
		381.689,120.395 407.594,88.826 387.362,134.153 365.503,177.865 275.648,245.864 	"/>
	<polygon style="fill:#4B3937;" points="334.745,159.249 325.028,185.157 336.358,177.865 	"/>
	<polygon style="fill:#4B3937;" points="274.84,225.628 296.688,177.865 265.119,227.245 	"/>
</g>
<path style="fill:#917853;" d="M202.336,248.116c0,0-12.138-15.382-24.28-17.003l-28.333-10.518c0,0,1.624,16.183,8.909,27.517
	c7.281,11.33,17.003,28.333,30.761,25.897l21.04,17.003l7.285-40.471L202.336,248.116z"/>
<g>
	<polygon style="fill:#4B3937;" points="227.102,233.722 140.488,171.395 111.344,124.443 120.249,102.584 119.441,72.631 
		99.202,120.395 73.297,88.826 93.537,134.153 115.385,177.865 205.243,245.864 	"/>
	<polygon style="fill:#4B3937;" points="146.157,159.249 155.871,185.157 144.537,177.865 	"/>
	<polygon style="fill:#4B3937;" points="206.055,225.628 184.203,177.865 215.765,227.245 	"/>
</g>
<path style="fill:#8C6D4A;" d="M279.304,249.033c-7.274-21.863-38.241-16.396-38.241-16.396l-1.231,0.03v-0.03
	c0,0-30.963-5.467-38.252,16.396c0,0-20.03,43.7,10.933,81.948c0,0,3.409,3.405,26.675,10.215l0.056,0.715
	c0.408-0.123,0.804-0.239,1.201-0.355c0.404,0.112,0.797,0.232,1.205,0.355l-0.015-0.703c23.33-6.817,26.742-10.23,26.742-10.23
	C299.348,292.733,279.304,249.033,279.304,249.033z"/>
<path style="fill:#9E8166;" d="M261.081,331.06c0,19.019-9.25,16.696-21.755,16.696c-12.52,0-23.581,0.299-23.581-16.696
	c0-12.516,10.148-18.009,22.668-18.009C250.934,313.047,261.081,318.544,261.081,331.06z"/>
<path style="fill:#937A5E;" d="M261.081,326.513c0,12.516-8.935,15.775-21.452,15.775s-23.884-3.259-23.884-15.775
	c0-12.516,10.148-17.403,22.668-17.403C250.934,309.111,261.081,313.997,261.081,326.513z"/>
<path style="fill:#9E8166;" d="M262.986,328.717c0,5.373-9.687,11.854-23.255,11.854c-13.575,0-25.893-8.505-25.893-11.854
	c0-13.571,11.005-20.524,24.572-20.524C251.981,308.194,262.986,315.146,262.986,328.717z"/>
<path style="fill:#3E3940;" d="M252.909,319.079c0,0-8.123-3.267-14.9-3.267c-6.773,0-14.907,3.267-14.907,3.267
	c-2.327,1.983-2.327,5.197,0,7.184l10.679,9.085c2.331,1.979,6.122,1.979,8.453,0l10.679-9.085
	C255.252,324.272,255.252,321.062,252.909,319.079z"/>
<path style="fill:#9E8166;" d="M269.979,276.411c0,2.354-4.344,4.262-9.717,4.262c-5.358,0-9.706-1.908-9.706-4.262
	c0-2.339,4.348-4.247,9.706-4.247C265.635,272.168,269.979,274.073,269.979,276.411z"/>
<path style="fill:#3E3940;" d="M265.938,276.411c0,1.908-2.178,3.454-4.857,3.454c-2.687,0-4.857-1.545-4.857-3.454
	c0-1.893,2.17-3.439,4.857-3.439C263.76,272.973,265.938,274.522,265.938,276.411z"/>
<path style="fill:#9E8166;" d="M209.673,276.411c0,2.354,4.348,4.262,9.71,4.262c5.373,0,9.721-1.908,9.721-4.262
	c0-2.339-4.348-4.247-9.721-4.247C214.025,272.168,209.673,274.073,209.673,276.411z"/>
<path style="fill:#3E3940;" d="M213.722,276.411c0,1.908,2.181,3.454,4.864,3.454c2.679,0,4.857-1.545,4.857-3.454
	c0-1.893-2.178-3.439-4.857-3.439C215.903,272.973,213.722,274.522,213.722,276.411z"/>
</svg>